<svg width="33" height="33" viewBox="0 0 33 33" fill="none" xmlns="http://www.w3.org/2000/svg">
<path d="M21.1715 15.8871C21.1491 16.079 21.3679 16.2559 21.6572 16.2847C21.9467 16.3126 22.1963 16.1795 22.2174 15.9882L22.9178 9.29361C22.9385 9.10238 22.7197 8.92278 22.4322 8.89684C22.1423 8.86626 21.8909 8.99965 21.8717 9.19157L21.1715 15.8871Z" fill="#808285"/>
<path d="M21.6069 15.8679C21.602 15.9135 21.6062 15.9597 21.6195 16.0036C21.6327 16.0476 21.6546 16.0885 21.6839 16.1241C21.7132 16.1597 21.7494 16.1891 21.7904 16.2108C21.8313 16.2326 21.8763 16.2461 21.9227 16.2507C22.016 16.2591 22.1091 16.2309 22.1818 16.1721C22.2544 16.1134 22.3006 16.0288 22.3104 15.937L23.0127 9.24298C23.0184 9.15326 22.9886 9.06501 22.9297 8.99666C22.8707 8.92832 22.7872 8.88517 22.6964 8.87624C22.6056 8.86731 22.5147 8.89329 22.4426 8.94874C22.3705 9.0042 22.3229 9.08484 22.3096 9.17382L21.6069 15.8679Z" fill="#9D9EA4"/>
<path d="M14.9009 5.26464L23.9771 6.2253L22.953 15.2334L13.8763 14.2728L14.9009 5.26464Z" fill="#00A79D"/>
<path d="M18.6634 5.41769L20.2663 5.58742L19.1873 15.0827L17.5845 14.9134L18.6634 5.41769Z" fill="#EF4136"/>
<path d="M14.031 10.4049L14.2114 8.82703L23.8493 9.85059L23.669 11.429L14.031 10.4049Z" fill="#EF4136"/>
<path d="M2.0214 7.15117L13.891 2.1049L18.9982 13.8558L7.12864 18.9021L2.0214 7.15117Z" fill="#FFF200"/>
<path d="M14.2499 16.2517L12.1568 17.143L6.76822 4.75375L8.86395 3.86161L14.2499 16.2517Z" fill="#27AAE1"/>
<path d="M4.58401 14.0532L3.68844 11.993L16.2971 6.63149L17.1926 8.69128L4.58401 14.0532Z" fill="#27AAE1"/>
<path d="M4.95943 12.9834L2.91211 13.0488L3.87569 30.7761L6.4786 30.0867L8.94759 19.7391L4.95943 12.9834Z" fill="#BE1E2D"/>
<path d="M3.87509 30.7739L7.95686 31.9335L6.47801 30.0845L3.87509 30.7739Z" fill="#CC2D32"/>
<path d="M4.95955 12.9834L6.4784 30.0844L7.95725 31.9335L9.61924 18.2253L5.63147 12.327L4.95955 12.9834Z" fill="#840C1A"/>
<path d="M27.7318 9.43965L5.63136 12.3269L7.95714 31.9334L31.7196 27.0459L27.7318 9.43965Z" fill="#C92B3D"/>
<path d="M14.3772 13.2729C18.4285 13.5785 22.4096 14.8555 26.1936 12.6744C26.8717 12.283 27.5307 11.8612 28.1833 11.4313L27.7324 9.43913L5.63113 12.327L6.17096 16.8813C8.44796 14.7671 10.8844 13.0089 14.3772 13.2729Z" fill="#BE1E2D"/>
<path d="M17.8025 17.1535C12.5283 16.4224 10.1595 17.8416 6.65171 20.925L7.55178 28.5062C8.78194 27.2312 9.87219 25.7628 11.1674 24.4106C13.2089 22.2815 15.4482 22.4942 18.1895 22.6039C22.0857 22.7606 26.0703 22.7563 29.5832 20.7979C29.8066 20.6727 30.0059 20.5405 30.2166 20.4107L28.9655 14.8887C25.7304 16.7717 22.2521 17.7699 17.8012 17.1537" fill="#DB425F"/>
<path d="M21.772 26.2511C19.8684 26.2251 17.4995 25.7185 15.6366 26.0444C12.8451 26.5303 11.7618 28.4182 10.0959 30.3504C9.67792 30.8357 9.24225 31.3061 8.78977 31.7606L31.7172 27.0467L31.0095 23.9176C28.1211 25.4047 25.0962 26.2964 21.7711 26.2512" fill="#D1334A"/>
<path d="M31.1354 24.3439L7.5495 28.5966L7.9553 31.9337L32.2934 27.0079L31.1354 24.3439Z" fill="#BE1E2D"/>
<path d="M12.0438 14.4033C12.1459 15.1054 11.5395 15.7774 10.6908 15.9008C9.8438 16.024 9.07116 15.5526 8.96906 14.8504C8.8667 14.1465 9.47347 13.4773 10.3204 13.3541C11.1691 13.2302 11.9414 13.6994 12.0438 14.4033ZM26.6476 11.9847C26.7495 12.6859 26.145 13.3576 25.2962 13.481C24.4474 13.6044 23.6748 13.133 23.5728 12.4318C23.4704 11.7279 24.0772 11.0586 24.926 10.9352C25.7747 10.8113 26.5452 11.2808 26.6476 11.9847Z" fill="#FFF200"/>
<path d="M11.3486 15.4087C12.0824 17.5129 12.1981 20.2467 17.014 21.1745C17.82 21.3291 18.8318 21.418 19.8181 21.3314C20.89 21.2396 21.7739 20.9388 22.4421 20.5397C23.9795 19.6106 24.4218 18.4333 24.6658 17.4262C25.0095 16.0032 25.0826 14.5546 24.777 13.1873C24.6919 12.7892 26.1748 12.579 26.2634 12.9785C26.5276 14.163 26.4462 15.3888 26.2895 16.6118C26.1543 17.6803 25.8325 18.7842 24.825 19.849C24.3321 20.3704 23.6543 20.8885 22.6782 21.3024C21.7884 21.6804 20.685 21.8886 19.5652 21.9751C17.3183 22.1454 15.2415 21.6586 13.8466 21.0922C12.3403 20.4815 11.5549 19.5632 11.0141 18.6749C10.4159 17.6907 10.2226 16.6345 9.86865 15.6176C9.73257 15.2282 11.2169 15.0178 11.3512 15.4079" fill="#E6E7E8"/>
</svg>
