<svg width="47" height="47" viewBox="0 0 47 47" fill="none" xmlns="http://www.w3.org/2000/svg">
<path d="M39.8856 27.1303C40.2022 28.3689 39.6615 29.5937 38.7059 29.9544L15.8391 37.6622C14.4464 38.1346 13.0284 37.294 12.6103 35.8098L7.91733 17.4502C7.54487 15.9931 8.4126 14.5294 9.86121 14.2756L33.5491 10.0835C34.5876 9.8956 35.6227 10.7565 35.9392 11.995L39.8856 27.1303Z" fill="#AFCDDB"/>
<path d="M37.6796 18.6519L9.98438 25.5371L8.32696 19.053L36.3201 13.3335L37.6796 18.6519Z" fill="#333333"/>
<path d="M34.9785 21.7485L15.2635 27.0596L16.6043 32.3052L36.1518 26.3384L34.9785 21.7485Z" fill="white"/>
<path d="M21.2015 29.0345C20.895 27.9874 22.0117 27.0422 22.62 26.5375C23.6282 25.7753 22.901 27.9404 22.7112 28.2605C22.2332 29.2753 21.4994 30.2002 20.7013 31.0251C20.2387 31.4927 19.7574 31.8873 19.1847 32.2278C18.8577 32.4666 18.4663 32.6054 18.0834 32.6257C17.1533 32.6306 16.9857 31.9749 17.5264 30.7501C17.8348 30.4384 18.1618 30.1996 18.5989 30.0878C20.1188 29.5053 21.7892 29.8157 23.3107 29.5432C23.4564 29.5059 23.4005 29.2874 23.2548 29.3246C21.469 29.6258 18.511 28.9849 17.2078 30.8703C16.3571 32.0968 17.4937 33.2033 18.6136 32.8782C20.0979 32.46 21.3299 30.9033 22.1806 29.6768C22.6602 28.9721 24.0905 26.9766 23.1284 26.0971C23.0826 26.07 23.0369 26.0428 23.0098 26.0886C22.0914 26.595 20.5477 27.8433 20.9744 29.209C20.993 29.2818 21.2387 29.1802 21.2015 29.0345Z" fill="#4F5B60"/>
<path d="M23.1446 29.1975C23.7798 30.3158 25.3287 28.3288 25.544 27.6528C25.5982 27.5613 25.461 27.48 25.3881 27.4986C24.6409 27.612 23.8987 28.6555 23.9307 29.5399C23.9222 29.6585 24.0137 29.7127 24.1136 29.6484C24.7863 29.2436 25.3218 28.7574 25.9301 28.2527C26.1843 28.0325 26.3588 28.2595 26.6502 28.185L28.3987 27.7381C29.1273 27.5519 29.6441 26.9929 30.3269 26.7795C31.2283 26.5103 31.8941 26.5341 32.6567 25.8735C32.8109 25.7177 33.082 25.2603 32.7619 25.0705C32.1486 24.6451 30.8134 25.6462 31.7638 26.0242C32.8514 26.4835 34.4712 25.8366 35.4912 25.5759C35.6369 25.5386 35.581 25.3201 35.4353 25.3573C34.9253 25.4877 34.3696 25.5909 33.8867 25.6755C33.4767 25.7415 33.0667 25.8075 32.6109 25.8464C32.4195 25.8566 30.9049 25.7004 32.1519 25.2652C32.2349 25.438 32.3179 25.6109 32.3737 25.8294C32.2738 25.8938 32.1467 26.0039 32.0467 26.0683C31.8468 26.197 31.6011 26.2986 31.3554 26.4002C30.9369 26.5848 30.4168 26.5237 29.9525 26.6812C29.3426 26.8759 28.88 27.3434 28.27 27.5381C27.9786 27.6126 26.4316 28.2409 26.1928 27.9139C26.1471 27.8867 26.1013 27.8596 26.0742 27.9054C25.7929 28.1713 25.5387 28.3915 25.2117 28.6303C25.1117 28.6947 24.1849 29.3197 24.1578 29.3654C24.246 28.7996 24.6171 28.2778 25.0441 27.9746C25.0457 28.2847 24.883 28.5591 24.656 28.7336C24.2391 29.2282 23.7749 29.3857 23.2632 29.206C23.2616 28.896 23.0616 29.0247 23.1446 29.1975Z" fill="#4F5B60"/>
</svg>
