<svg width="43" height="35" viewBox="0 0 43 35" fill="none" xmlns="http://www.w3.org/2000/svg">
<path fill-rule="evenodd" clip-rule="evenodd" d="M25.125 20.625C26.5837 20.625 27.9826 20.0455 29.0141 19.0141C30.0455 17.9826 30.625 16.5837 30.625 15.125C30.625 13.6663 30.0455 12.2674 29.0141 11.2359C27.9826 10.2045 26.5837 9.625 25.125 9.625C23.6663 9.625 22.2674 10.2045 21.2359 11.2359C20.2045 12.2674 19.625 13.6663 19.625 15.125C19.625 16.5837 20.2045 17.9826 21.2359 19.0141C22.2674 20.0455 23.6663 20.625 25.125 20.625ZM32 15.125C32 16.9484 31.2757 18.697 29.9864 19.9864C28.697 21.2757 26.9484 22 25.125 22C23.3016 22 21.553 21.2757 20.2636 19.9864C18.9743 18.697 18.25 16.9484 18.25 15.125C18.25 13.3016 18.9743 11.553 20.2636 10.2636C21.553 8.97433 23.3016 8.25 25.125 8.25C26.9484 8.25 28.697 8.97433 29.9864 10.2636C31.2757 11.553 32 13.3016 32 15.125Z" fill="black"/>
<path d="M22.9772 16.423C23.0418 17.2425 23.6895 17.8805 24.8513 17.9575V18.5625H25.367V17.9534C26.5701 17.8695 27.2727 17.226 27.2727 16.2938C27.2727 15.444 26.7365 15.0068 25.774 14.7812L25.367 14.685V13.035C25.884 13.0941 26.2112 13.376 26.2896 13.7665H27.1943C27.1297 12.9759 26.4518 12.3585 25.367 12.2911V11.6875H24.8513V12.3062C23.8242 12.4066 23.1257 13.024 23.1257 13.8985C23.1257 14.6712 23.6455 15.1635 24.5103 15.3642L24.8513 15.4481V17.1971C24.3233 17.1174 23.9727 16.8259 23.8943 16.423H22.9758H22.9772ZM24.8472 14.5613C24.3398 14.4444 24.0648 14.2037 24.0648 13.8435C24.0648 13.4392 24.3618 13.1367 24.8513 13.0487V14.5613H24.8472ZM25.4412 15.587C26.0586 15.73 26.3418 15.961 26.3418 16.3694C26.3418 16.8355 25.9885 17.1545 25.367 17.2136V15.5705L25.4412 15.587Z" fill="black"/>
<path d="M11.375 0C11.0103 0 10.6606 0.144866 10.4027 0.402728C10.1449 0.660591 10 1.01033 10 1.375V12.375C10 12.7397 10.1449 13.0894 10.4027 13.3473C10.6606 13.6051 11.0103 13.75 11.375 13.75H16.9891C17.0689 13.277 17.1885 12.8177 17.3439 12.375H14.125C14.125 11.6457 13.8353 10.9462 13.3195 10.4305C12.8038 9.91473 12.1043 9.625 11.375 9.625V4.125C12.1043 4.125 12.8038 3.83527 13.3195 3.31954C13.8353 2.80382 14.125 2.10435 14.125 1.375H27.875C27.875 2.10435 28.1647 2.80382 28.6805 3.31954C29.1962 3.83527 29.8957 4.125 30.625 4.125V8.976C31.1475 9.4435 31.6109 9.977 32 10.5627V1.375C32 1.01033 31.8551 0.660591 31.5973 0.402728C31.3394 0.144866 30.9897 0 30.625 0L11.375 0Z" fill="black"/>
<path d="M23.7473 6.98914L23.75 6.87501C23.7497 6.40145 23.6272 5.93599 23.3942 5.5237C23.1612 5.11142 22.8257 4.76628 22.4202 4.52172C22.0146 4.27717 21.5528 4.14148 21.0795 4.1278C20.6061 4.11411 20.1372 4.2229 19.7182 4.44363C19.2993 4.66435 18.9444 4.98953 18.688 5.38767C18.4316 5.78581 18.2823 6.24342 18.2547 6.71618C18.2271 7.18893 18.322 7.66081 18.5302 8.08611C18.7385 8.51142 19.0531 8.87573 19.4435 9.14376C20.6312 8.01251 22.1299 7.26217 23.7473 6.98914Z" fill="black"/>
<path d="M2.9502 33.3555C3.16504 33.3555 3.36361 33.3115 3.5459 33.2236C3.72819 33.1357 3.87793 33.0153 3.99512 32.8623C4.1123 32.7061 4.17904 32.5286 4.19531 32.3301H5.05469C5.03841 32.6426 4.93262 32.9339 4.7373 33.2041C4.54525 33.471 4.29297 33.6875 3.98047 33.8535C3.66797 34.0163 3.32454 34.0977 2.9502 34.0977C2.55306 34.0977 2.20638 34.0277 1.91016 33.8877C1.61719 33.7477 1.37305 33.5557 1.17773 33.3115C0.985677 33.0674 0.84082 32.7874 0.743164 32.4717C0.648763 32.1527 0.601562 31.8158 0.601562 31.4609V31.2559C0.601562 30.901 0.648763 30.5658 0.743164 30.25C0.84082 29.931 0.985677 29.6494 1.17773 29.4053C1.37305 29.1611 1.61719 28.9691 1.91016 28.8291C2.20638 28.6891 2.55306 28.6191 2.9502 28.6191C3.36361 28.6191 3.72493 28.7038 4.03418 28.873C4.34342 29.0391 4.58594 29.2669 4.76172 29.5566C4.94076 29.8431 5.03841 30.1686 5.05469 30.5332H4.19531C4.17904 30.3151 4.11719 30.1182 4.00977 29.9424C3.9056 29.7666 3.76237 29.6266 3.58008 29.5225C3.40104 29.415 3.19108 29.3613 2.9502 29.3613C2.6735 29.3613 2.44076 29.4167 2.25195 29.5273C2.06641 29.6348 1.91829 29.7812 1.80762 29.9668C1.7002 30.1491 1.62207 30.3525 1.57324 30.5771C1.52767 30.7985 1.50488 31.0247 1.50488 31.2559V31.4609C1.50488 31.6921 1.52767 31.9199 1.57324 32.1445C1.61882 32.3691 1.69531 32.5726 1.80273 32.7549C1.91341 32.9372 2.06152 33.0837 2.24707 33.1943C2.43587 33.3018 2.67025 33.3555 2.9502 33.3555ZM9.18555 33.0967V30.377C9.18555 30.1686 9.14323 29.988 9.05859 29.835C8.97721 29.6787 8.85352 29.5583 8.6875 29.4736C8.52148 29.389 8.31641 29.3467 8.07227 29.3467C7.8444 29.3467 7.64421 29.3857 7.47168 29.4639C7.30241 29.542 7.16895 29.6445 7.07129 29.7715C6.97689 29.8984 6.92969 30.0352 6.92969 30.1816H6.02637C6.02637 29.9928 6.0752 29.8057 6.17285 29.6201C6.27051 29.4346 6.41048 29.2669 6.59277 29.1172C6.77832 28.9642 6.99967 28.8438 7.25684 28.7559C7.51725 28.6647 7.80697 28.6191 8.12598 28.6191C8.51009 28.6191 8.84863 28.6842 9.1416 28.8145C9.43783 28.9447 9.66895 29.1416 9.83496 29.4053C10.0042 29.6657 10.0889 29.9928 10.0889 30.3867V32.8477C10.0889 33.0234 10.1035 33.2106 10.1328 33.4092C10.1654 33.6077 10.2126 33.7786 10.2744 33.9219V34H9.33203C9.28646 33.8958 9.25065 33.7575 9.22461 33.585C9.19857 33.4092 9.18555 33.2464 9.18555 33.0967ZM9.3418 30.7969L9.35156 31.4316H8.43848C8.18132 31.4316 7.95182 31.4528 7.75 31.4951C7.54818 31.5342 7.37891 31.5944 7.24219 31.6758C7.10547 31.7572 7.0013 31.8597 6.92969 31.9834C6.85807 32.1038 6.82227 32.2454 6.82227 32.4082C6.82227 32.5742 6.8597 32.7256 6.93457 32.8623C7.00944 32.999 7.12174 33.1081 7.27148 33.1895C7.42448 33.2676 7.61165 33.3066 7.83301 33.3066C8.1097 33.3066 8.35384 33.248 8.56543 33.1309C8.77702 33.0137 8.94466 32.8704 9.06836 32.7012C9.19531 32.5319 9.26367 32.3675 9.27344 32.208L9.65918 32.6426C9.63639 32.7793 9.57454 32.9307 9.47363 33.0967C9.37272 33.2627 9.23763 33.4222 9.06836 33.5752C8.90234 33.7249 8.70378 33.8503 8.47266 33.9512C8.24479 34.0488 7.98763 34.0977 7.70117 34.0977C7.3431 34.0977 7.02897 34.0277 6.75879 33.8877C6.49186 33.7477 6.28353 33.5605 6.13379 33.3262C5.9873 33.0885 5.91406 32.8232 5.91406 32.5303C5.91406 32.2471 5.9694 31.998 6.08008 31.7832C6.19076 31.5651 6.35026 31.3844 6.55859 31.2412C6.76693 31.0947 7.01758 30.984 7.31055 30.9092C7.60352 30.8343 7.93066 30.7969 8.29199 30.7969H9.3418ZM14.5859 32.5986C14.5859 32.4684 14.5566 32.348 14.498 32.2373C14.4427 32.1234 14.3271 32.0208 14.1514 31.9297C13.9788 31.8353 13.7184 31.7539 13.3701 31.6855C13.0771 31.6237 12.8118 31.5505 12.5742 31.4658C12.3398 31.3812 12.1396 31.2786 11.9736 31.1582C11.8109 31.0378 11.6855 30.8962 11.5977 30.7334C11.5098 30.5706 11.4658 30.3802 11.4658 30.1621C11.4658 29.9538 11.5114 29.7568 11.6025 29.5713C11.6969 29.3857 11.8288 29.2214 11.998 29.0781C12.1706 28.9349 12.3773 28.8226 12.6182 28.7412C12.859 28.6598 13.1276 28.6191 13.4238 28.6191C13.847 28.6191 14.2083 28.694 14.5078 28.8438C14.8073 28.9935 15.0368 29.1937 15.1963 29.4443C15.3558 29.6917 15.4355 29.9668 15.4355 30.2695H14.5322C14.5322 30.123 14.4883 29.9814 14.4004 29.8447C14.3158 29.7048 14.1904 29.5892 14.0244 29.498C13.8617 29.4069 13.6615 29.3613 13.4238 29.3613C13.1732 29.3613 12.9697 29.4004 12.8135 29.4785C12.6605 29.5534 12.5482 29.6494 12.4766 29.7666C12.4082 29.8838 12.374 30.0075 12.374 30.1377C12.374 30.2354 12.3903 30.3232 12.4229 30.4014C12.4587 30.4762 12.5205 30.5462 12.6084 30.6113C12.6963 30.6732 12.82 30.7318 12.9795 30.7871C13.139 30.8424 13.3424 30.8978 13.5898 30.9531C14.0228 31.0508 14.3792 31.168 14.6592 31.3047C14.9391 31.4414 15.1475 31.609 15.2842 31.8076C15.4209 32.0062 15.4893 32.2471 15.4893 32.5303C15.4893 32.7614 15.4404 32.973 15.3428 33.165C15.2484 33.3571 15.11 33.5231 14.9277 33.6631C14.7487 33.7998 14.5339 33.9072 14.2832 33.9854C14.0358 34.0602 13.7575 34.0977 13.4482 34.0977C12.9827 34.0977 12.5889 34.0146 12.2666 33.8486C11.9443 33.6826 11.7002 33.4678 11.5342 33.2041C11.3682 32.9404 11.2852 32.6621 11.2852 32.3691H12.1934C12.2064 32.6165 12.278 32.8135 12.4082 32.96C12.5384 33.1032 12.6979 33.2057 12.8867 33.2676C13.0755 33.3262 13.2627 33.3555 13.4482 33.3555C13.6956 33.3555 13.9023 33.3229 14.0684 33.2578C14.2376 33.1927 14.3662 33.1032 14.4541 32.9893C14.542 32.8753 14.5859 32.7451 14.5859 32.5986ZM17.5791 26.5V34H16.6758V26.5H17.5791ZM17.3643 31.1582L16.9883 31.1436C16.9915 30.7822 17.0452 30.4486 17.1494 30.1426C17.2536 29.8333 17.4001 29.5648 17.5889 29.3369C17.7777 29.109 18.0023 28.9333 18.2627 28.8096C18.5264 28.6826 18.8177 28.6191 19.1367 28.6191C19.3971 28.6191 19.6315 28.6549 19.8398 28.7266C20.0482 28.7949 20.2256 28.9056 20.3721 29.0586C20.5218 29.2116 20.6357 29.4102 20.7139 29.6543C20.792 29.8952 20.8311 30.1898 20.8311 30.5381V34H19.9229V30.5283C19.9229 30.2516 19.8822 30.0303 19.8008 29.8643C19.7194 29.695 19.6006 29.5729 19.4443 29.498C19.2881 29.4199 19.096 29.3809 18.8682 29.3809C18.6436 29.3809 18.4385 29.4281 18.2529 29.5225C18.0706 29.6169 17.9128 29.7471 17.7793 29.9131C17.6491 30.0791 17.5465 30.2695 17.4717 30.4844C17.4001 30.696 17.3643 30.9206 17.3643 31.1582ZM22.1787 26.5H23.0869V32.9746L23.0088 34H22.1787V26.5ZM26.6562 31.3145V31.417C26.6562 31.8011 26.6107 32.1576 26.5195 32.4863C26.4284 32.8118 26.2949 33.0951 26.1191 33.3359C25.9434 33.5768 25.7285 33.764 25.4746 33.8975C25.2207 34.0309 24.9294 34.0977 24.6006 34.0977C24.2653 34.0977 23.9707 34.0407 23.7168 33.9268C23.4661 33.8096 23.2546 33.6419 23.082 33.4238C22.9095 33.2057 22.7712 32.9421 22.667 32.6328C22.5661 32.3236 22.4961 31.9753 22.457 31.5879V31.1387C22.4961 30.748 22.5661 30.3981 22.667 30.0889C22.7712 29.7796 22.9095 29.516 23.082 29.2979C23.2546 29.0765 23.4661 28.9089 23.7168 28.7949C23.9674 28.6777 24.2588 28.6191 24.5908 28.6191C24.9229 28.6191 25.2174 28.6842 25.4746 28.8145C25.7318 28.9414 25.9466 29.1237 26.1191 29.3613C26.2949 29.599 26.4284 29.8838 26.5195 30.2158C26.6107 30.5446 26.6562 30.9108 26.6562 31.3145ZM25.748 31.417V31.3145C25.748 31.0508 25.7236 30.8034 25.6748 30.5723C25.626 30.3379 25.5479 30.1328 25.4404 29.957C25.333 29.778 25.1914 29.638 25.0156 29.5371C24.8398 29.4329 24.6234 29.3809 24.3662 29.3809C24.1383 29.3809 23.9398 29.4199 23.7705 29.498C23.6045 29.5762 23.4629 29.682 23.3457 29.8154C23.2285 29.9456 23.1325 30.0954 23.0576 30.2646C22.986 30.4307 22.9323 30.6032 22.8965 30.7822V31.959C22.9486 32.1868 23.0332 32.4066 23.1504 32.6182C23.2708 32.8265 23.4303 32.9974 23.6289 33.1309C23.8307 33.2643 24.0798 33.3311 24.376 33.3311C24.6201 33.3311 24.8285 33.2822 25.001 33.1846C25.1768 33.0837 25.3184 32.9453 25.4258 32.7695C25.5365 32.5938 25.6178 32.3903 25.6699 32.1592C25.722 31.9281 25.748 31.6807 25.748 31.417ZM30.9141 33.0967V30.377C30.9141 30.1686 30.8717 29.988 30.7871 29.835C30.7057 29.6787 30.582 29.5583 30.416 29.4736C30.25 29.389 30.0449 29.3467 29.8008 29.3467C29.5729 29.3467 29.3727 29.3857 29.2002 29.4639C29.0309 29.542 28.8975 29.6445 28.7998 29.7715C28.7054 29.8984 28.6582 30.0352 28.6582 30.1816H27.7549C27.7549 29.9928 27.8037 29.8057 27.9014 29.6201C27.999 29.4346 28.139 29.2669 28.3213 29.1172C28.5068 28.9642 28.7282 28.8438 28.9854 28.7559C29.2458 28.6647 29.5355 28.6191 29.8545 28.6191C30.2386 28.6191 30.5771 28.6842 30.8701 28.8145C31.1663 28.9447 31.3975 29.1416 31.5635 29.4053C31.7327 29.6657 31.8174 29.9928 31.8174 30.3867V32.8477C31.8174 33.0234 31.832 33.2106 31.8613 33.4092C31.8939 33.6077 31.9411 33.7786 32.0029 33.9219V34H31.0605C31.015 33.8958 30.9792 33.7575 30.9531 33.585C30.9271 33.4092 30.9141 33.2464 30.9141 33.0967ZM31.0703 30.7969L31.0801 31.4316H30.167C29.9098 31.4316 29.6803 31.4528 29.4785 31.4951C29.2767 31.5342 29.1074 31.5944 28.9707 31.6758C28.834 31.7572 28.7298 31.8597 28.6582 31.9834C28.5866 32.1038 28.5508 32.2454 28.5508 32.4082C28.5508 32.5742 28.5882 32.7256 28.6631 32.8623C28.738 32.999 28.8503 33.1081 29 33.1895C29.153 33.2676 29.3402 33.3066 29.5615 33.3066C29.8382 33.3066 30.0824 33.248 30.2939 33.1309C30.5055 33.0137 30.6732 32.8704 30.7969 32.7012C30.9238 32.5319 30.9922 32.3675 31.002 32.208L31.3877 32.6426C31.3649 32.7793 31.3031 32.9307 31.2021 33.0967C31.1012 33.2627 30.9661 33.4222 30.7969 33.5752C30.6309 33.7249 30.4323 33.8503 30.2012 33.9512C29.9733 34.0488 29.7161 34.0977 29.4297 34.0977C29.0716 34.0977 28.7575 34.0277 28.4873 33.8877C28.2204 33.7477 28.012 33.5605 27.8623 33.3262C27.7158 33.0885 27.6426 32.8232 27.6426 32.5303C27.6426 32.2471 27.6979 31.998 27.8086 31.7832C27.9193 31.5651 28.0788 31.3844 28.2871 31.2412C28.4954 31.0947 28.7461 30.984 29.0391 30.9092C29.332 30.8343 29.6592 30.7969 30.0205 30.7969H31.0703ZM35.3525 33.3555C35.5674 33.3555 35.766 33.3115 35.9482 33.2236C36.1305 33.1357 36.2803 33.0153 36.3975 32.8623C36.5146 32.7061 36.5814 32.5286 36.5977 32.3301H37.457C37.4408 32.6426 37.335 32.9339 37.1396 33.2041C36.9476 33.471 36.6953 33.6875 36.3828 33.8535C36.0703 34.0163 35.7269 34.0977 35.3525 34.0977C34.9554 34.0977 34.6087 34.0277 34.3125 33.8877C34.0195 33.7477 33.7754 33.5557 33.5801 33.3115C33.388 33.0674 33.2432 32.7874 33.1455 32.4717C33.0511 32.1527 33.0039 31.8158 33.0039 31.4609V31.2559C33.0039 30.901 33.0511 30.5658 33.1455 30.25C33.2432 29.931 33.388 29.6494 33.5801 29.4053C33.7754 29.1611 34.0195 28.9691 34.3125 28.8291C34.6087 28.6891 34.9554 28.6191 35.3525 28.6191C35.766 28.6191 36.1273 28.7038 36.4365 28.873C36.7458 29.0391 36.9883 29.2669 37.1641 29.5566C37.3431 29.8431 37.4408 30.1686 37.457 30.5332H36.5977C36.5814 30.3151 36.5195 30.1182 36.4121 29.9424C36.3079 29.7666 36.1647 29.6266 35.9824 29.5225C35.8034 29.415 35.5934 29.3613 35.3525 29.3613C35.0758 29.3613 34.8431 29.4167 34.6543 29.5273C34.4688 29.6348 34.3206 29.7812 34.21 29.9668C34.1025 30.1491 34.0244 30.3525 33.9756 30.5771C33.93 30.7985 33.9072 31.0247 33.9072 31.2559V31.4609C33.9072 31.6921 33.93 31.9199 33.9756 32.1445C34.0212 32.3691 34.0977 32.5726 34.2051 32.7549C34.3158 32.9372 34.4639 33.0837 34.6494 33.1943C34.8382 33.3018 35.0726 33.3555 35.3525 33.3555ZM39.3809 26.5V34H38.4727V26.5H39.3809ZM42.6084 28.7168L40.3037 31.1826L39.0146 32.5205L38.9414 31.5586L39.8643 30.4551L41.5049 28.7168H42.6084ZM41.7832 34L39.8984 31.4805L40.3672 30.6748L42.8477 34H41.7832Z" fill="black"/>
</svg>
