<svg width="32" height="31" viewBox="0 0 32 31" fill="none" xmlns="http://www.w3.org/2000/svg">
<path fill-rule="evenodd" clip-rule="evenodd" d="M20.1406 7.45367L22.0148 16.5052C22.2185 17.4887 22.0083 18.3445 21.5047 18.9881C21.0131 19.6151 20.2876 19.9823 19.5457 20.1034C18.6884 20.2442 17.724 20.0586 16.9849 19.4935C17.0879 20.7657 17.702 21.4988 17.9483 21.6747L18.5121 22.0761L17.7093 23.2037L17.1455 22.8023C16.4706 22.3214 15.5878 21.0417 15.5873 19.1311C15.0328 19.3732 14.4343 19.4986 13.8292 19.4994C13.1945 19.4965 12.5393 19.343 11.9901 18.9711C11.4278 18.5906 11.0156 18.0066 10.8556 17.2339C10.6249 16.1195 10.8561 15.2319 11.4453 14.4963C11.99 13.8159 12.8151 13.3043 13.6574 12.8253C13.8549 12.7137 14.0571 12.6011 14.2629 12.4857C15.872 11.5891 17.7004 10.5701 19.2206 8.62956L20.1406 7.45367ZM17.235 17.4511C17.412 16.8688 17.6885 16.2276 18.0966 15.5288L18.4464 14.9312L17.2507 14.233L16.9009 14.8306C16.3842 15.7152 16.045 16.5418 15.8404 17.3016C15.4082 17.7813 14.6227 18.1185 13.8352 18.1148C13.4085 18.1127 13.0385 18.009 12.7656 17.8245C12.506 17.6492 12.2993 17.3781 12.2111 16.9525C12.0587 16.2164 12.2105 15.7545 12.5255 15.3605C12.8845 14.913 13.4844 14.5159 14.3419 14.028C14.5285 13.9222 14.7251 13.813 14.9285 13.6995C16.2466 12.9678 17.8829 12.0592 19.3685 10.5527L20.6592 16.7859C20.7876 17.4061 20.6461 17.8391 20.4151 18.1336C20.1719 18.4441 19.7803 18.6623 19.3222 18.7374C18.4143 18.8865 17.4912 18.4633 17.235 17.4511Z" fill="black"/>
<path fill-rule="evenodd" clip-rule="evenodd" d="M18.5294 26.9833L18.3601 27.6545L18.3572 27.6537L18.3482 27.6513L18.3161 27.6431L18.1964 27.6113C18.093 27.5833 17.9429 27.5408 17.7523 27.4842C15.4932 26.8056 13.3121 25.8906 11.245 24.7543C7.60034 22.733 3.54042 19.4575 2.52444 14.5508C2.06788 12.3459 2.35566 10.0589 3.27489 8.20318C4.19749 6.34321 5.77618 4.8832 7.89775 4.44391C10.4179 3.9221 12.6264 4.9542 14.3299 6.70161C15.2002 4.42197 16.8165 2.59721 19.3366 2.0754C21.4582 1.63611 23.4868 2.34918 25.0716 3.69068C26.6534 5.02786 27.8248 7.01197 28.2816 9.21826C29.2589 13.9379 26.8282 18.5581 24.3041 21.8976C22.7671 23.9141 21.0214 25.7626 19.0961 27.4123C19.0643 27.4392 19.0323 27.4658 19.0002 27.4923L18.9743 27.5139L18.9677 27.5195L18.9646 27.5216L18.5294 26.9833ZM4.5155 8.81788C3.74023 10.3823 3.48289 12.3519 3.88007 14.2701C4.77016 18.5688 8.37379 21.5797 11.9162 23.5437C13.9613 24.667 16.1227 25.5643 18.3621 26.2198L18.5384 26.0674C20.2535 24.5572 21.8148 22.881 23.1996 21.0631C25.6685 17.7951 27.7758 13.6031 26.9257 9.4976C26.5285 7.57938 25.5104 5.87456 24.1776 4.74666C22.8493 3.6228 21.2413 3.09476 19.6173 3.43103C17.371 3.89615 15.9359 5.72511 15.2869 8.25792L14.936 9.6291L14.0698 8.51134C12.4681 6.44313 10.4247 5.33443 8.17845 5.79955C6.5544 6.13582 5.28837 7.25894 4.5155 8.81788Z" fill="black"/>
<path d="M18.5293 26.9833L18.9645 27.5216L18.6956 27.7384L18.3601 27.6545L18.5293 26.9833Z" fill="black"/>
</svg>
