<svg width="10" height="10" viewBox="0 0 10 10" fill="none" xmlns="http://www.w3.org/2000/svg">
<path d="M5 0C2.23884 0 0 2.23884 0 5C0 7.76116 2.23884 10 5 10C7.76116 10 10 7.76116 10 5C10 2.23884 7.76116 0 5 0ZM5 7.90179C4.75335 7.90179 4.55357 7.70201 4.55357 7.45536C4.55357 7.20871 4.75335 7.00893 5 7.00893C5.24665 7.00893 5.44643 7.20871 5.44643 7.45536C5.44643 7.70201 5.24665 7.90179 5 7.90179ZM5.70201 5.45201C5.60094 5.49104 5.51397 5.55962 5.45245 5.64881C5.39093 5.738 5.35772 5.84366 5.35714 5.95201V6.20536C5.35714 6.25446 5.31696 6.29464 5.26786 6.29464H4.73214C4.68304 6.29464 4.64286 6.25446 4.64286 6.20536V5.9654C4.64286 5.70759 4.71763 5.45312 4.86496 5.24107C5.00893 5.03348 5.20982 4.875 5.44643 4.7846C5.82589 4.63839 6.07143 4.32031 6.07143 3.97321C6.07143 3.48103 5.5904 3.08036 5 3.08036C4.4096 3.08036 3.92857 3.48103 3.92857 3.97321V4.05804C3.92857 4.10714 3.88839 4.14732 3.83929 4.14732H3.30357C3.25446 4.14732 3.21429 4.10714 3.21429 4.05804V3.97321C3.21429 3.5346 3.40625 3.125 3.75446 2.82031C4.08929 2.52679 4.53125 2.36607 5 2.36607C5.46875 2.36607 5.91071 2.5279 6.24554 2.82031C6.59375 3.125 6.78571 3.5346 6.78571 3.97321C6.78571 4.6183 6.36049 5.19866 5.70201 5.45201Z" fill="black"/>
</svg>
