<svg width="25" height="35" viewBox="0 0 25 35" fill="none" xmlns="http://www.w3.org/2000/svg">
<path d="M22.5438 10.8234L13.1673 0.900617L12.5388 0.235159C12.3956 0.0845357 12.2019 0 12 0C11.7982 0 11.6045 0.0845357 11.4613 0.235159L1.45631 10.8234C1.30957 10.9781 1.1936 11.1625 1.11525 11.3655C1.0369 11.5685 0.997742 11.786 1.0001 12.0053C1.00981 12.9097 1.72081 13.6317 2.57499 13.6317H3.60631V22H20.3938V13.6317H21.4469C21.8619 13.6317 22.2526 13.4595 22.5462 13.1486C22.6908 12.9961 22.8053 12.8146 22.8832 12.6148C22.9611 12.415 23.0008 12.2009 23 11.9847C23 11.5479 22.8374 11.1343 22.5438 10.8234ZM13.359 20.1501H10.6411V14.9086H13.359V20.1501ZM18.6466 11.7818V20.1501H14.912V14.292C14.912 13.7242 14.4776 13.2643 13.9414 13.2643H10.0587C9.52245 13.2643 9.08808 13.7242 9.08808 14.292V20.1501H5.35349V11.7818H3.02392L12.0025 2.28292L12.563 2.87644L20.9786 11.7818H18.6466Z" fill="black"/>
<path d="M0.950195 26.5V34H0.046875V26.5H0.950195ZM0.735352 31.1582L0.359375 31.1436C0.36263 30.7822 0.416341 30.4486 0.520508 30.1426C0.624674 29.8333 0.771159 29.5648 0.959961 29.3369C1.14876 29.109 1.37337 28.9333 1.63379 28.8096C1.89746 28.6826 2.1888 28.6191 2.50781 28.6191C2.76823 28.6191 3.0026 28.6549 3.21094 28.7266C3.41927 28.7949 3.59668 28.9056 3.74316 29.0586C3.8929 29.2116 4.00684 29.4102 4.08496 29.6543C4.16309 29.8952 4.20215 30.1898 4.20215 30.5381V34H3.29395V30.5283C3.29395 30.2516 3.25326 30.0303 3.17188 29.8643C3.09049 29.695 2.97168 29.5729 2.81543 29.498C2.65918 29.4199 2.46712 29.3809 2.23926 29.3809C2.01465 29.3809 1.80957 29.4281 1.62402 29.5225C1.44173 29.6169 1.28385 29.7471 1.15039 29.9131C1.02018 30.0791 0.917643 30.2695 0.842773 30.4844C0.771159 30.696 0.735352 30.9206 0.735352 31.1582ZM5.31543 31.417V31.3047C5.31543 30.9238 5.37077 30.5706 5.48145 30.2451C5.59212 29.9163 5.75163 29.6315 5.95996 29.3906C6.16829 29.1465 6.42057 28.9577 6.7168 28.8242C7.01302 28.6875 7.34505 28.6191 7.71289 28.6191C8.08398 28.6191 8.41764 28.6875 8.71387 28.8242C9.01335 28.9577 9.26725 29.1465 9.47559 29.3906C9.68717 29.6315 9.84831 29.9163 9.95898 30.2451C10.0697 30.5706 10.125 30.9238 10.125 31.3047V31.417C10.125 31.7979 10.0697 32.151 9.95898 32.4766C9.84831 32.8021 9.68717 33.0869 9.47559 33.3311C9.26725 33.5719 9.01497 33.7607 8.71875 33.8975C8.42578 34.0309 8.09375 34.0977 7.72266 34.0977C7.35156 34.0977 7.0179 34.0309 6.72168 33.8975C6.42546 33.7607 6.17155 33.5719 5.95996 33.3311C5.75163 33.0869 5.59212 32.8021 5.48145 32.4766C5.37077 32.151 5.31543 31.7979 5.31543 31.417ZM6.21875 31.3047V31.417C6.21875 31.6807 6.24967 31.9297 6.31152 32.1641C6.37337 32.3952 6.46615 32.6003 6.58984 32.7793C6.7168 32.9583 6.87467 33.0999 7.06348 33.2041C7.25228 33.305 7.47201 33.3555 7.72266 33.3555C7.97005 33.3555 8.18652 33.305 8.37207 33.2041C8.56087 33.0999 8.71712 32.9583 8.84082 32.7793C8.96452 32.6003 9.05729 32.3952 9.11914 32.1641C9.18424 31.9297 9.2168 31.6807 9.2168 31.417V31.3047C9.2168 31.0443 9.18424 30.7985 9.11914 30.5674C9.05729 30.333 8.96289 30.1263 8.83594 29.9473C8.71224 29.765 8.55599 29.6217 8.36719 29.5176C8.18164 29.4134 7.96354 29.3613 7.71289 29.3613C7.46549 29.3613 7.2474 29.4134 7.05859 29.5176C6.87305 29.6217 6.7168 29.765 6.58984 29.9473C6.46615 30.1263 6.37337 30.333 6.31152 30.5674C6.24967 30.7985 6.21875 31.0443 6.21875 31.3047ZM12.1562 29.7666V34H11.248V28.7168H12.1074L12.1562 29.7666ZM11.9707 31.1582L11.5508 31.1436C11.554 30.7822 11.6012 30.4486 11.6924 30.1426C11.7835 29.8333 11.9186 29.5648 12.0977 29.3369C12.2767 29.109 12.4997 28.9333 12.7666 28.8096C13.0335 28.6826 13.3428 28.6191 13.6943 28.6191C13.9417 28.6191 14.1696 28.6549 14.3779 28.7266C14.5863 28.7949 14.7669 28.904 14.9199 29.0537C15.0729 29.2035 15.1917 29.3955 15.2764 29.6299C15.361 29.8643 15.4033 30.1475 15.4033 30.4795V34H14.5V30.5234C14.5 30.2467 14.4528 30.0254 14.3584 29.8594C14.2673 29.6934 14.137 29.5729 13.9678 29.498C13.7985 29.4199 13.5999 29.3809 13.3721 29.3809C13.1051 29.3809 12.8822 29.4281 12.7031 29.5225C12.5241 29.6169 12.3809 29.7471 12.2734 29.9131C12.166 30.0791 12.0879 30.2695 12.0391 30.4844C11.9935 30.696 11.9707 30.9206 11.9707 31.1582ZM15.3936 30.6602L14.7881 30.8457C14.7913 30.556 14.8385 30.2777 14.9297 30.0107C15.0241 29.7438 15.1592 29.5062 15.335 29.2979C15.514 29.0895 15.7337 28.9251 15.9941 28.8047C16.2546 28.681 16.5524 28.6191 16.8877 28.6191C17.1709 28.6191 17.4215 28.6566 17.6396 28.7314C17.861 28.8063 18.0465 28.9219 18.1963 29.0781C18.3493 29.2311 18.4648 29.4281 18.543 29.6689C18.6211 29.9098 18.6602 30.1963 18.6602 30.5283V34H17.752V30.5186C17.752 30.2223 17.7048 29.9928 17.6104 29.8301C17.5192 29.6641 17.389 29.5485 17.2197 29.4834C17.0537 29.415 16.8551 29.3809 16.624 29.3809C16.4255 29.3809 16.2497 29.415 16.0967 29.4834C15.9437 29.5518 15.8151 29.6462 15.7109 29.7666C15.6068 29.8838 15.527 30.0189 15.4717 30.1719C15.4196 30.3249 15.3936 30.4876 15.3936 30.6602ZM22.2197 34.0977C21.8519 34.0977 21.5182 34.0358 21.2188 33.9121C20.9225 33.7852 20.667 33.6077 20.4521 33.3799C20.2406 33.152 20.0778 32.8818 19.9639 32.5693C19.8499 32.2568 19.793 31.915 19.793 31.5439V31.3389C19.793 30.9092 19.8564 30.5267 19.9834 30.1914C20.1104 29.8529 20.2829 29.5664 20.501 29.332C20.7191 29.0977 20.9665 28.9202 21.2432 28.7998C21.5199 28.6794 21.8063 28.6191 22.1025 28.6191C22.4801 28.6191 22.8057 28.6842 23.0791 28.8145C23.3558 28.9447 23.582 29.127 23.7578 29.3613C23.9336 29.5924 24.0638 29.8659 24.1484 30.1816C24.2331 30.4941 24.2754 30.8359 24.2754 31.207V31.6123H20.3301V30.875H23.3721V30.8066C23.359 30.5723 23.3102 30.3444 23.2256 30.123C23.1442 29.9017 23.014 29.7194 22.835 29.5762C22.6559 29.4329 22.4118 29.3613 22.1025 29.3613C21.8975 29.3613 21.7087 29.4053 21.5361 29.4932C21.3636 29.5778 21.2155 29.7048 21.0918 29.874C20.9681 30.0433 20.8721 30.25 20.8037 30.4941C20.7354 30.7383 20.7012 31.0199 20.7012 31.3389V31.5439C20.7012 31.7946 20.7354 32.0306 20.8037 32.252C20.8753 32.4701 20.9779 32.6621 21.1113 32.8281C21.248 32.9941 21.4124 33.1243 21.6045 33.2188C21.7998 33.3132 22.0212 33.3604 22.2686 33.3604C22.5876 33.3604 22.8577 33.2952 23.0791 33.165C23.3005 33.0348 23.4941 32.8607 23.6602 32.6426L24.207 33.0771C24.0931 33.2497 23.9482 33.4141 23.7725 33.5703C23.5967 33.7266 23.3802 33.8535 23.123 33.9512C22.8691 34.0488 22.568 34.0977 22.2197 34.0977Z" fill="black"/>
</svg>
