<svg width="30" height="36" viewBox="0 0 30 36" fill="none" xmlns="http://www.w3.org/2000/svg">
<path d="M21 20L16.514 15.506L21 20ZM19 9.5C19 11.7543 18.1045 13.9163 16.5104 15.5104C14.9163 17.1045 12.7543 18 10.5 18C8.24566 18 6.08365 17.1045 4.48959 15.5104C2.89553 13.9163 2 11.7543 2 9.5C2 7.24566 2.89553 5.08365 4.48959 3.48959C6.08365 1.89553 8.24566 1 10.5 1C12.7543 1 14.9163 1.89553 16.5104 3.48959C18.1045 5.08365 19 7.24566 19 9.5V9.5Z" stroke="black" stroke-width="2" stroke-linecap="round"/>
<path d="M0.00292969 27.5H0.911133V33.9746L0.833008 35H0.00292969V27.5ZM4.48047 32.3145V32.417C4.48047 32.8011 4.4349 33.1576 4.34375 33.4863C4.2526 33.8118 4.11914 34.0951 3.94336 34.3359C3.76758 34.5768 3.55273 34.764 3.29883 34.8975C3.04492 35.0309 2.75358 35.0977 2.4248 35.0977C2.08952 35.0977 1.79492 35.0407 1.54102 34.9268C1.29036 34.8096 1.07878 34.6419 0.90625 34.4238C0.733724 34.2057 0.595378 33.9421 0.491211 33.6328C0.390299 33.3236 0.320312 32.9753 0.28125 32.5879V32.1387C0.320312 31.748 0.390299 31.3981 0.491211 31.0889C0.595378 30.7796 0.733724 30.516 0.90625 30.2979C1.07878 30.0765 1.29036 29.9089 1.54102 29.7949C1.79167 29.6777 2.08301 29.6191 2.41504 29.6191C2.74707 29.6191 3.04167 29.6842 3.29883 29.8145C3.55599 29.9414 3.77083 30.1237 3.94336 30.3613C4.11914 30.599 4.2526 30.8838 4.34375 31.2158C4.4349 31.5446 4.48047 31.9108 4.48047 32.3145ZM3.57227 32.417V32.3145C3.57227 32.0508 3.54785 31.8034 3.49902 31.5723C3.4502 31.3379 3.37207 31.1328 3.26465 30.957C3.15723 30.778 3.01562 30.638 2.83984 30.5371C2.66406 30.4329 2.44759 30.3809 2.19043 30.3809C1.96257 30.3809 1.764 30.4199 1.59473 30.498C1.42871 30.5762 1.28711 30.682 1.16992 30.8154C1.05273 30.9456 0.956706 31.0954 0.881836 31.2646C0.810221 31.4307 0.75651 31.6032 0.720703 31.7822V32.959C0.772786 33.1868 0.857422 33.4066 0.974609 33.6182C1.09505 33.8265 1.25456 33.9974 1.45312 34.1309C1.65495 34.2643 1.90397 34.3311 2.2002 34.3311C2.44434 34.3311 2.65267 34.2822 2.8252 34.1846C3.00098 34.0837 3.14258 33.9453 3.25 33.7695C3.36068 33.5938 3.44206 33.3903 3.49414 33.1592C3.54622 32.9281 3.57227 32.6807 3.57227 32.417ZM8.85547 33.7793V29.7168H9.76367V35H8.89941L8.85547 33.7793ZM9.02637 32.666L9.40234 32.6562C9.40234 33.0078 9.36491 33.3333 9.29004 33.6328C9.21842 33.929 9.10124 34.1862 8.93848 34.4043C8.77572 34.6224 8.5625 34.7933 8.29883 34.917C8.03516 35.0374 7.71452 35.0977 7.33691 35.0977C7.07975 35.0977 6.84375 35.0602 6.62891 34.9854C6.41732 34.9105 6.23503 34.7949 6.08203 34.6387C5.92904 34.4824 5.81022 34.279 5.72559 34.0283C5.64421 33.7777 5.60352 33.4766 5.60352 33.125V29.7168H6.50684V33.1348C6.50684 33.3724 6.53288 33.5693 6.58496 33.7256C6.6403 33.8786 6.71354 34.0007 6.80469 34.0918C6.89909 34.1797 7.00326 34.2415 7.11719 34.2773C7.23438 34.3132 7.35482 34.3311 7.47852 34.3311C7.86263 34.3311 8.16699 34.2578 8.3916 34.1113C8.61621 33.9616 8.77734 33.7614 8.875 33.5107C8.97591 33.2568 9.02637 32.9753 9.02637 32.666ZM14.2168 33.5986C14.2168 33.4684 14.1875 33.348 14.1289 33.2373C14.0736 33.1234 13.958 33.0208 13.7822 32.9297C13.6097 32.8353 13.3493 32.7539 13.001 32.6855C12.708 32.6237 12.4427 32.5505 12.2051 32.4658C11.9707 32.3812 11.7705 32.2786 11.6045 32.1582C11.4417 32.0378 11.3164 31.8962 11.2285 31.7334C11.1406 31.5706 11.0967 31.3802 11.0967 31.1621C11.0967 30.9538 11.1423 30.7568 11.2334 30.5713C11.3278 30.3857 11.4596 30.2214 11.6289 30.0781C11.8014 29.9349 12.0081 29.8226 12.249 29.7412C12.4899 29.6598 12.7585 29.6191 13.0547 29.6191C13.4779 29.6191 13.8392 29.694 14.1387 29.8438C14.4382 29.9935 14.6676 30.1937 14.8271 30.4443C14.9867 30.6917 15.0664 30.9668 15.0664 31.2695H14.1631C14.1631 31.123 14.1191 30.9814 14.0312 30.8447C13.9466 30.7048 13.8213 30.5892 13.6553 30.498C13.4925 30.4069 13.2923 30.3613 13.0547 30.3613C12.804 30.3613 12.6006 30.4004 12.4443 30.4785C12.2913 30.5534 12.179 30.6494 12.1074 30.7666C12.0391 30.8838 12.0049 31.0075 12.0049 31.1377C12.0049 31.2354 12.0212 31.3232 12.0537 31.4014C12.0895 31.4762 12.1514 31.5462 12.2393 31.6113C12.3271 31.6732 12.4508 31.7318 12.6104 31.7871C12.7699 31.8424 12.9733 31.8978 13.2207 31.9531C13.6536 32.0508 14.0101 32.168 14.29 32.3047C14.57 32.4414 14.7783 32.609 14.915 32.8076C15.0518 33.0062 15.1201 33.2471 15.1201 33.5303C15.1201 33.7614 15.0713 33.973 14.9736 34.165C14.8792 34.3571 14.7409 34.5231 14.5586 34.6631C14.3796 34.7998 14.1647 34.9072 13.9141 34.9854C13.6667 35.0602 13.3883 35.0977 13.0791 35.0977C12.6136 35.0977 12.2197 35.0146 11.8975 34.8486C11.5752 34.6826 11.3311 34.4678 11.165 34.2041C10.999 33.9404 10.916 33.6621 10.916 33.3691H11.8242C11.8372 33.6165 11.9089 33.8135 12.0391 33.96C12.1693 34.1032 12.3288 34.2057 12.5176 34.2676C12.7064 34.3262 12.8936 34.3555 13.0791 34.3555C13.3265 34.3555 13.5332 34.3229 13.6992 34.2578C13.8685 34.1927 13.9971 34.1032 14.085 33.9893C14.1729 33.8753 14.2168 33.7451 14.2168 33.5986ZM18.4209 34.3555C18.6357 34.3555 18.8343 34.3115 19.0166 34.2236C19.1989 34.1357 19.3486 34.0153 19.4658 33.8623C19.583 33.7061 19.6497 33.5286 19.666 33.3301H20.5254C20.5091 33.6426 20.4033 33.9339 20.208 34.2041C20.016 34.471 19.7637 34.6875 19.4512 34.8535C19.1387 35.0163 18.7952 35.0977 18.4209 35.0977C18.0238 35.0977 17.6771 35.0277 17.3809 34.8877C17.0879 34.7477 16.8438 34.5557 16.6484 34.3115C16.4564 34.0674 16.3115 33.7874 16.2139 33.4717C16.1195 33.1527 16.0723 32.8158 16.0723 32.4609V32.2559C16.0723 31.901 16.1195 31.5658 16.2139 31.25C16.3115 30.931 16.4564 30.6494 16.6484 30.4053C16.8438 30.1611 17.0879 29.9691 17.3809 29.8291C17.6771 29.6891 18.0238 29.6191 18.4209 29.6191C18.8343 29.6191 19.1956 29.7038 19.5049 29.873C19.8141 30.0391 20.0566 30.2669 20.2324 30.5566C20.4115 30.8431 20.5091 31.1686 20.5254 31.5332H19.666C19.6497 31.3151 19.5879 31.1182 19.4805 30.9424C19.3763 30.7666 19.2331 30.6266 19.0508 30.5225C18.8717 30.415 18.6618 30.3613 18.4209 30.3613C18.1442 30.3613 17.9115 30.4167 17.7227 30.5273C17.5371 30.6348 17.389 30.7812 17.2783 30.9668C17.1709 31.1491 17.0928 31.3525 17.0439 31.5771C16.9984 31.7985 16.9756 32.0247 16.9756 32.2559V32.4609C16.9756 32.6921 16.9984 32.9199 17.0439 33.1445C17.0895 33.3691 17.166 33.5726 17.2734 33.7549C17.3841 33.9372 17.5322 34.0837 17.7178 34.1943C17.9066 34.3018 18.141 34.3555 18.4209 34.3555ZM24.6562 34.0967V31.377C24.6562 31.1686 24.6139 30.988 24.5293 30.835C24.4479 30.6787 24.3242 30.5583 24.1582 30.4736C23.9922 30.389 23.7871 30.3467 23.543 30.3467C23.3151 30.3467 23.1149 30.3857 22.9424 30.4639C22.7731 30.542 22.6396 30.6445 22.542 30.7715C22.4476 30.8984 22.4004 31.0352 22.4004 31.1816H21.4971C21.4971 30.9928 21.5459 30.8057 21.6436 30.6201C21.7412 30.4346 21.8812 30.2669 22.0635 30.1172C22.249 29.9642 22.4704 29.8438 22.7275 29.7559C22.988 29.6647 23.2777 29.6191 23.5967 29.6191C23.9808 29.6191 24.3193 29.6842 24.6123 29.8145C24.9085 29.9447 25.1396 30.1416 25.3057 30.4053C25.4749 30.6657 25.5596 30.9928 25.5596 31.3867V33.8477C25.5596 34.0234 25.5742 34.2106 25.6035 34.4092C25.6361 34.6077 25.6833 34.7786 25.7451 34.9219V35H24.8027C24.7572 34.8958 24.7214 34.7575 24.6953 34.585C24.6693 34.4092 24.6562 34.2464 24.6562 34.0967ZM24.8125 31.7969L24.8223 32.4316H23.9092C23.652 32.4316 23.4225 32.4528 23.2207 32.4951C23.0189 32.5342 22.8496 32.5944 22.7129 32.6758C22.5762 32.7572 22.472 32.8597 22.4004 32.9834C22.3288 33.1038 22.293 33.2454 22.293 33.4082C22.293 33.5742 22.3304 33.7256 22.4053 33.8623C22.4801 33.999 22.5924 34.1081 22.7422 34.1895C22.8952 34.2676 23.0824 34.3066 23.3037 34.3066C23.5804 34.3066 23.8245 34.248 24.0361 34.1309C24.2477 34.0137 24.4154 33.8704 24.5391 33.7012C24.666 33.5319 24.7344 33.3675 24.7441 33.208L25.1299 33.6426C25.1071 33.7793 25.0452 33.9307 24.9443 34.0967C24.8434 34.2627 24.7083 34.4222 24.5391 34.5752C24.373 34.7249 24.1745 34.8503 23.9434 34.9512C23.7155 35.0488 23.4583 35.0977 23.1719 35.0977C22.8138 35.0977 22.4997 35.0277 22.2295 34.8877C21.9626 34.7477 21.7542 34.5605 21.6045 34.3262C21.458 34.0885 21.3848 33.8232 21.3848 33.5303C21.3848 33.2471 21.4401 32.998 21.5508 32.7832C21.6615 32.5651 21.821 32.3844 22.0293 32.2412C22.2376 32.0947 22.4883 31.984 22.7812 31.9092C23.0742 31.8343 23.4014 31.7969 23.7627 31.7969H24.8125ZM27.8838 30.5469V35H26.9805V29.7168H27.8594L27.8838 30.5469ZM29.5342 29.6875L29.5293 30.5273C29.4544 30.5111 29.3828 30.5013 29.3145 30.498C29.2493 30.4915 29.1745 30.4883 29.0898 30.4883C28.8815 30.4883 28.6976 30.5208 28.5381 30.5859C28.3786 30.651 28.2435 30.7422 28.1328 30.8594C28.0221 30.9766 27.9342 31.1165 27.8691 31.2793C27.8073 31.4388 27.7666 31.6146 27.7471 31.8066L27.4932 31.9531C27.4932 31.6341 27.5241 31.3346 27.5859 31.0547C27.651 30.7747 27.7503 30.5273 27.8838 30.3125C28.0173 30.0944 28.1865 29.9251 28.3916 29.8047C28.5999 29.681 28.8473 29.6191 29.1338 29.6191C29.1989 29.6191 29.2738 29.6273 29.3584 29.6436C29.443 29.6566 29.5016 29.6712 29.5342 29.6875Z" fill="black"/>
</svg>
