<svg width="22" height="39" viewBox="0 0 22 39" fill="none" xmlns="http://www.w3.org/2000/svg">
<path d="M7.5798 22C8.41704 22 9.09576 21.2964 9.09576 20.4286C9.09576 19.5607 8.41704 18.8571 7.5798 18.8571C6.74256 18.8571 6.06384 19.5607 6.06384 20.4286C6.06384 21.2964 6.74256 22 7.5798 22Z" fill="black"/>
<path d="M18.1915 22C19.0287 22 19.7075 21.2964 19.7075 20.4286C19.7075 19.5607 19.0287 18.8571 18.1915 18.8571C17.3543 18.8571 16.6755 19.5607 16.6755 20.4286C16.6755 21.2964 17.3543 22 18.1915 22Z" fill="black"/>
<path d="M21.2234 3.9287H4.41144L3.78989 0.628727C3.75446 0.448583 3.6592 0.287024 3.5207 0.172173C3.38221 0.0573226 3.20924 -0.00354707 3.03191 0.000159844H0V1.57158H2.41037L5.30585 16.6572C5.34129 16.8373 5.43654 16.9989 5.57504 17.1137C5.71354 17.2286 5.8865 17.2895 6.06383 17.2858H19.7074V15.7143H6.68537L6.06383 12.5715H19.7074C19.8827 12.5759 20.0539 12.5173 20.1921 12.4056C20.3303 12.2938 20.4269 12.1359 20.4654 11.9586L21.9814 4.88727C22.0068 4.77069 22.0062 4.64964 21.9796 4.53333C21.9531 4.41702 21.9013 4.30853 21.8282 4.21609C21.7551 4.12366 21.6627 4.04973 21.5579 3.99993C21.4531 3.95013 21.3387 3.92577 21.2234 3.9287ZM19.1011 11.0001H5.7758L4.71463 5.50012H20.2759L19.1011 11.0001Z" fill="black"/>
<path d="M7.68652 28.5V36H6.77832V28.5H7.68652ZM8.89746 33.417V33.3047C8.89746 32.9238 8.9528 32.5706 9.06348 32.2451C9.17415 31.9163 9.33366 31.6315 9.54199 31.3906C9.75033 31.1465 10.0026 30.9577 10.2988 30.8242C10.5951 30.6875 10.9271 30.6191 11.2949 30.6191C11.666 30.6191 11.9997 30.6875 12.2959 30.8242C12.5954 30.9577 12.8493 31.1465 13.0576 31.3906C13.2692 31.6315 13.4303 31.9163 13.541 32.2451C13.6517 32.5706 13.707 32.9238 13.707 33.3047V33.417C13.707 33.7979 13.6517 34.151 13.541 34.4766C13.4303 34.8021 13.2692 35.0869 13.0576 35.3311C12.8493 35.5719 12.597 35.7607 12.3008 35.8975C12.0078 36.0309 11.6758 36.0977 11.3047 36.0977C10.9336 36.0977 10.5999 36.0309 10.3037 35.8975C10.0075 35.7607 9.75358 35.5719 9.54199 35.3311C9.33366 35.0869 9.17415 34.8021 9.06348 34.4766C8.9528 34.151 8.89746 33.7979 8.89746 33.417ZM9.80078 33.3047V33.417C9.80078 33.6807 9.83171 33.9297 9.89355 34.1641C9.9554 34.3952 10.0482 34.6003 10.1719 34.7793C10.2988 34.9583 10.4567 35.0999 10.6455 35.2041C10.8343 35.305 11.054 35.3555 11.3047 35.3555C11.5521 35.3555 11.7686 35.305 11.9541 35.2041C12.1429 35.0999 12.2992 34.9583 12.4229 34.7793C12.5465 34.6003 12.6393 34.3952 12.7012 34.1641C12.7663 33.9297 12.7988 33.6807 12.7988 33.417V33.3047C12.7988 33.0443 12.7663 32.7985 12.7012 32.5674C12.6393 32.333 12.5449 32.1263 12.418 31.9473C12.2943 31.765 12.138 31.6217 11.9492 31.5176C11.7637 31.4134 11.5456 31.3613 11.2949 31.3613C11.0475 31.3613 10.8294 31.4134 10.6406 31.5176C10.4551 31.6217 10.2988 31.765 10.1719 31.9473C10.0482 32.1263 9.9554 32.333 9.89355 32.5674C9.83171 32.7985 9.80078 33.0443 9.80078 33.3047ZM14.8643 30.7168H15.7725V36.6299C15.7725 36.9521 15.7204 37.2256 15.6162 37.4502C15.5153 37.6748 15.3623 37.8441 15.1572 37.958C14.9554 38.0752 14.6999 38.1338 14.3906 38.1338C14.3092 38.1338 14.2148 38.1257 14.1074 38.1094C13.9967 38.0931 13.904 38.0736 13.8291 38.0508L13.834 37.3232C13.8958 37.3363 13.9658 37.346 14.0439 37.3525C14.1221 37.3623 14.1904 37.3672 14.249 37.3672C14.3825 37.3672 14.4948 37.3428 14.5859 37.2939C14.6771 37.2451 14.7454 37.167 14.791 37.0596C14.8398 36.9521 14.8643 36.8089 14.8643 36.6299V30.7168ZM14.7715 29.3154C14.7715 29.1689 14.8171 29.0452 14.9082 28.9443C14.9993 28.8434 15.1312 28.793 15.3037 28.793C15.4795 28.793 15.613 28.8434 15.7041 28.9443C15.7952 29.0452 15.8408 29.1689 15.8408 29.3154C15.8408 29.4554 15.7952 29.5758 15.7041 29.6768C15.613 29.7744 15.4795 29.8232 15.3037 29.8232C15.1312 29.8232 14.9993 29.7744 14.9082 29.6768C14.8171 29.5758 14.7715 29.4554 14.7715 29.3154ZM20.3477 35.0967V32.377C20.3477 32.1686 20.3053 31.988 20.2207 31.835C20.1393 31.6787 20.0156 31.5583 19.8496 31.4736C19.6836 31.389 19.4785 31.3467 19.2344 31.3467C19.0065 31.3467 18.8063 31.3857 18.6338 31.4639C18.4645 31.542 18.3311 31.6445 18.2334 31.7715C18.139 31.8984 18.0918 32.0352 18.0918 32.1816H17.1885C17.1885 31.9928 17.2373 31.8057 17.335 31.6201C17.4326 31.4346 17.5726 31.2669 17.7549 31.1172C17.9404 30.9642 18.1618 30.8438 18.4189 30.7559C18.6794 30.6647 18.9691 30.6191 19.2881 30.6191C19.6722 30.6191 20.0107 30.6842 20.3037 30.8145C20.5999 30.9447 20.8311 31.1416 20.9971 31.4053C21.1663 31.6657 21.251 31.9928 21.251 32.3867V34.8477C21.251 35.0234 21.2656 35.2106 21.2949 35.4092C21.3275 35.6077 21.3747 35.7786 21.4365 35.9219V36H20.4941C20.4486 35.8958 20.4128 35.7575 20.3867 35.585C20.3607 35.4092 20.3477 35.2464 20.3477 35.0967ZM20.5039 32.7969L20.5137 33.4316H19.6006C19.3434 33.4316 19.1139 33.4528 18.9121 33.4951C18.7103 33.5342 18.541 33.5944 18.4043 33.6758C18.2676 33.7572 18.1634 33.8597 18.0918 33.9834C18.0202 34.1038 17.9844 34.2454 17.9844 34.4082C17.9844 34.5742 18.0218 34.7256 18.0967 34.8623C18.1715 34.999 18.2839 35.1081 18.4336 35.1895C18.5866 35.2676 18.7738 35.3066 18.9951 35.3066C19.2718 35.3066 19.516 35.248 19.7275 35.1309C19.9391 35.0137 20.1068 34.8704 20.2305 34.7012C20.3574 34.5319 20.4258 34.3675 20.4355 34.208L20.8213 34.6426C20.7985 34.7793 20.7367 34.9307 20.6357 35.0967C20.5348 35.2627 20.3997 35.4222 20.2305 35.5752C20.0645 35.7249 19.8659 35.8503 19.6348 35.9512C19.4069 36.0488 19.1497 36.0977 18.8633 36.0977C18.5052 36.0977 18.1911 36.0277 17.9209 35.8877C17.654 35.7477 17.4456 35.5605 17.2959 35.3262C17.1494 35.0885 17.0762 34.8232 17.0762 34.5303C17.0762 34.2471 17.1315 33.998 17.2422 33.7832C17.3529 33.5651 17.5124 33.3844 17.7207 33.2412C17.929 33.0947 18.1797 32.984 18.4727 32.9092C18.7656 32.8343 19.0928 32.7969 19.4541 32.7969H20.5039Z" fill="black"/>
</svg>
