<svg width="35" height="38" viewBox="0 0 35 38" fill="none" xmlns="http://www.w3.org/2000/svg">
<path d="M21.6931 20H21.5624C6.45258 19.1308 4.30721 6.37692 4.00732 2.48462C3.98316 2.18198 4.01893 1.87756 4.11257 1.58878C4.20622 1.3 4.35591 1.03254 4.55306 0.801732C4.75021 0.570923 4.99095 0.381298 5.26149 0.243723C5.53202 0.106147 5.82703 0.0233245 6.12962 7.21224e-07H10.3665C10.6745 -0.000297558 10.9755 0.0919312 11.2305 0.264741C11.4855 0.43755 11.6828 0.682977 11.7968 0.969232L12.9656 3.84615C13.0781 4.12581 13.106 4.43237 13.0459 4.72776C12.9857 5.02316 12.8401 5.29436 12.6272 5.50769L10.9894 7.16154C11.2452 8.61596 11.9415 9.95667 12.9839 11.0023C14.0264 12.0479 15.3648 12.7479 16.818 13.0077L18.4866 11.3538C18.7031 11.1432 18.9767 11.001 19.2735 10.9449C19.5702 10.8888 19.8769 10.9213 20.1552 11.0385L23.0542 12.2C23.336 12.3176 23.5764 12.5165 23.7449 12.7713C23.9133 13.0261 24.0021 13.3253 24 13.6308V17.6923C24 18.3043 23.7569 18.8913 23.3243 19.3241C22.8917 19.7569 22.3049 20 21.6931 20ZM6.31417 1.53846C6.11023 1.53846 5.91464 1.61951 5.77044 1.76376C5.62623 1.90802 5.54522 2.10368 5.54522 2.30769V2.36923C5.89894 6.92308 8.16733 17.6923 21.647 18.4615C21.748 18.4678 21.8493 18.454 21.945 18.421C22.0406 18.388 22.1289 18.3365 22.2046 18.2693C22.2803 18.2021 22.3421 18.1207 22.3862 18.0296C22.4304 17.9385 22.4562 17.8395 22.4621 17.7385V13.6308L19.5631 12.4692L17.3563 14.6615L16.9872 14.6154C10.2973 13.7769 9.38996 7.08462 9.38996 7.01539L9.34382 6.64615L11.5276 4.43846L10.3742 1.53846H6.31417Z" fill="black"/>
<path d="M4.16016 33.5986C4.16016 33.4684 4.13086 33.348 4.07227 33.2373C4.01693 33.1234 3.90137 33.0208 3.72559 32.9297C3.55306 32.8353 3.29264 32.7539 2.94434 32.6855C2.65137 32.6237 2.38607 32.5505 2.14844 32.4658C1.91406 32.3812 1.71387 32.2786 1.54785 32.1582C1.38509 32.0378 1.25977 31.8962 1.17188 31.7334C1.08398 31.5706 1.04004 31.3802 1.04004 31.1621C1.04004 30.9538 1.08561 30.7568 1.17676 30.5713C1.27116 30.3857 1.40299 30.2214 1.57227 30.0781C1.74479 29.9349 1.9515 29.8226 2.19238 29.7412C2.43327 29.6598 2.70182 29.6191 2.99805 29.6191C3.42122 29.6191 3.78255 29.694 4.08203 29.8438C4.38151 29.9935 4.611 30.1937 4.77051 30.4443C4.93001 30.6917 5.00977 30.9668 5.00977 31.2695H4.10645C4.10645 31.123 4.0625 30.9814 3.97461 30.8447C3.88997 30.7048 3.76465 30.5892 3.59863 30.498C3.43587 30.4069 3.23568 30.3613 2.99805 30.3613C2.7474 30.3613 2.54395 30.4004 2.3877 30.4785C2.2347 30.5534 2.1224 30.6494 2.05078 30.7666C1.98242 30.8838 1.94824 31.0075 1.94824 31.1377C1.94824 31.2354 1.96452 31.3232 1.99707 31.4014C2.03288 31.4762 2.09473 31.5462 2.18262 31.6113C2.27051 31.6732 2.39421 31.7318 2.55371 31.7871C2.71322 31.8424 2.91667 31.8978 3.16406 31.9531C3.59701 32.0508 3.95345 32.168 4.2334 32.3047C4.51335 32.4414 4.72168 32.609 4.8584 32.8076C4.99512 33.0062 5.06348 33.2471 5.06348 33.5303C5.06348 33.7614 5.01465 33.973 4.91699 34.165C4.82259 34.3571 4.68424 34.5231 4.50195 34.6631C4.32292 34.7998 4.10807 34.9072 3.85742 34.9854C3.61003 35.0602 3.33171 35.0977 3.02246 35.0977C2.55697 35.0977 2.16309 35.0146 1.84082 34.8486C1.51855 34.6826 1.27441 34.4678 1.1084 34.2041C0.942383 33.9404 0.859375 33.6621 0.859375 33.3691H1.76758C1.7806 33.6165 1.85221 33.8135 1.98242 33.96C2.11263 34.1032 2.27214 34.2057 2.46094 34.2676C2.64974 34.3262 2.83691 34.3555 3.02246 34.3555C3.26986 34.3555 3.47656 34.3229 3.64258 34.2578C3.81185 34.1927 3.94043 34.1032 4.02832 33.9893C4.11621 33.8753 4.16016 33.7451 4.16016 33.5986ZM9.48242 33.7793V29.7168H10.3906V35H9.52637L9.48242 33.7793ZM9.65332 32.666L10.0293 32.6562C10.0293 33.0078 9.99186 33.3333 9.91699 33.6328C9.84538 33.929 9.72819 34.1862 9.56543 34.4043C9.40267 34.6224 9.18945 34.7933 8.92578 34.917C8.66211 35.0374 8.34147 35.0977 7.96387 35.0977C7.70671 35.0977 7.4707 35.0602 7.25586 34.9854C7.04427 34.9105 6.86198 34.7949 6.70898 34.6387C6.55599 34.4824 6.43717 34.279 6.35254 34.0283C6.27116 33.7777 6.23047 33.4766 6.23047 33.125V29.7168H7.13379V33.1348C7.13379 33.3724 7.15983 33.5693 7.21191 33.7256C7.26725 33.8786 7.34049 34.0007 7.43164 34.0918C7.52604 34.1797 7.63021 34.2415 7.74414 34.2773C7.86133 34.3132 7.98177 34.3311 8.10547 34.3311C8.48958 34.3311 8.79395 34.2578 9.01855 34.1113C9.24316 33.9616 9.4043 33.7614 9.50195 33.5107C9.60286 33.2568 9.65332 32.9753 9.65332 32.666ZM12.6709 30.7324V37.0312H11.7627V29.7168H12.5928L12.6709 30.7324ZM16.2305 32.3145V32.417C16.2305 32.8011 16.1849 33.1576 16.0938 33.4863C16.0026 33.8118 15.8691 34.0951 15.6934 34.3359C15.5208 34.5768 15.3076 34.764 15.0537 34.8975C14.7998 35.0309 14.5085 35.0977 14.1797 35.0977C13.8444 35.0977 13.5482 35.0423 13.291 34.9316C13.0339 34.821 12.8158 34.6598 12.6367 34.4482C12.4577 34.2367 12.3145 33.9827 12.207 33.6865C12.1029 33.3903 12.0312 33.0566 11.9922 32.6855V32.1387C12.0312 31.748 12.1045 31.3981 12.2119 31.0889C12.3193 30.7796 12.4609 30.516 12.6367 30.2979C12.8158 30.0765 13.0322 29.9089 13.2861 29.7949C13.54 29.6777 13.833 29.6191 14.165 29.6191C14.4971 29.6191 14.7917 29.6842 15.0488 29.8145C15.306 29.9414 15.5225 30.1237 15.6982 30.3613C15.874 30.599 16.0059 30.8838 16.0938 31.2158C16.1849 31.5446 16.2305 31.9108 16.2305 32.3145ZM15.3223 32.417V32.3145C15.3223 32.0508 15.2946 31.8034 15.2393 31.5723C15.1839 31.3379 15.0977 31.1328 14.9805 30.957C14.8665 30.778 14.7201 30.638 14.541 30.5371C14.362 30.4329 14.1488 30.3809 13.9014 30.3809C13.6735 30.3809 13.4749 30.4199 13.3057 30.498C13.1396 30.5762 12.998 30.682 12.8809 30.8154C12.7637 30.9456 12.6676 31.0954 12.5928 31.2646C12.5212 31.4307 12.4674 31.6032 12.4316 31.7822V33.0469C12.4967 33.2747 12.5879 33.4896 12.7051 33.6914C12.8223 33.89 12.9785 34.0511 13.1738 34.1748C13.3691 34.2952 13.6149 34.3555 13.9111 34.3555C14.1553 34.3555 14.3652 34.305 14.541 34.2041C14.7201 34.0999 14.8665 33.9583 14.9805 33.7793C15.0977 33.6003 15.1839 33.3952 15.2393 33.1641C15.2946 32.9297 15.3223 32.6807 15.3223 32.417ZM17.1436 32.417V32.3047C17.1436 31.9238 17.1989 31.5706 17.3096 31.2451C17.4202 30.9163 17.5798 30.6315 17.7881 30.3906C17.9964 30.1465 18.2487 29.9577 18.5449 29.8242C18.8411 29.6875 19.1732 29.6191 19.541 29.6191C19.9121 29.6191 20.2458 29.6875 20.542 29.8242C20.8415 29.9577 21.0954 30.1465 21.3037 30.3906C21.5153 30.6315 21.6764 30.9163 21.7871 31.2451C21.8978 31.5706 21.9531 31.9238 21.9531 32.3047V32.417C21.9531 32.7979 21.8978 33.151 21.7871 33.4766C21.6764 33.8021 21.5153 34.0869 21.3037 34.3311C21.0954 34.5719 20.8431 34.7607 20.5469 34.8975C20.2539 35.0309 19.9219 35.0977 19.5508 35.0977C19.1797 35.0977 18.846 35.0309 18.5498 34.8975C18.2536 34.7607 17.9997 34.5719 17.7881 34.3311C17.5798 34.0869 17.4202 33.8021 17.3096 33.4766C17.1989 33.151 17.1436 32.7979 17.1436 32.417ZM18.0469 32.3047V32.417C18.0469 32.6807 18.0778 32.9297 18.1396 33.1641C18.2015 33.3952 18.2943 33.6003 18.418 33.7793C18.5449 33.9583 18.7028 34.0999 18.8916 34.2041C19.0804 34.305 19.3001 34.3555 19.5508 34.3555C19.7982 34.3555 20.0146 34.305 20.2002 34.2041C20.389 34.0999 20.5452 33.9583 20.6689 33.7793C20.7926 33.6003 20.8854 33.3952 20.9473 33.1641C21.0124 32.9297 21.0449 32.6807 21.0449 32.417V32.3047C21.0449 32.0443 21.0124 31.7985 20.9473 31.5674C20.8854 31.333 20.791 31.1263 20.6641 30.9473C20.5404 30.765 20.3841 30.6217 20.1953 30.5176C20.0098 30.4134 19.7917 30.3613 19.541 30.3613C19.2936 30.3613 19.0755 30.4134 18.8867 30.5176C18.7012 30.6217 18.5449 30.765 18.418 30.9473C18.2943 31.1263 18.2015 31.333 18.1396 31.5674C18.0778 31.7985 18.0469 32.0443 18.0469 32.3047ZM23.9893 30.5469V35H23.0859V29.7168H23.9648L23.9893 30.5469ZM25.6396 29.6875L25.6348 30.5273C25.5599 30.5111 25.4883 30.5013 25.4199 30.498C25.3548 30.4915 25.2799 30.4883 25.1953 30.4883C24.987 30.4883 24.8031 30.5208 24.6436 30.5859C24.484 30.651 24.349 30.7422 24.2383 30.8594C24.1276 30.9766 24.0397 31.1165 23.9746 31.2793C23.9128 31.4388 23.8721 31.6146 23.8525 31.8066L23.5986 31.9531C23.5986 31.6341 23.6296 31.3346 23.6914 31.0547C23.7565 30.7747 23.8558 30.5273 23.9893 30.3125C24.1227 30.0944 24.292 29.9251 24.4971 29.8047C24.7054 29.681 24.9528 29.6191 25.2393 29.6191C25.3044 29.6191 25.3792 29.6273 25.4639 29.6436C25.5485 29.6566 25.6071 29.6712 25.6396 29.6875ZM28.9307 29.7168V30.4102H26.0742V29.7168H28.9307ZM27.041 28.4326H27.9443V33.6914C27.9443 33.8704 27.972 34.0055 28.0273 34.0967C28.0827 34.1878 28.1543 34.248 28.2422 34.2773C28.3301 34.3066 28.4245 34.3213 28.5254 34.3213C28.6003 34.3213 28.6784 34.3148 28.7598 34.3018C28.8444 34.2855 28.9079 34.2725 28.9502 34.2627L28.9551 35C28.8835 35.0228 28.7891 35.0439 28.6719 35.0635C28.5579 35.0863 28.4196 35.0977 28.2568 35.0977C28.0355 35.0977 27.832 35.0537 27.6465 34.9658C27.4609 34.8779 27.3128 34.7314 27.2021 34.5264C27.0947 34.318 27.041 34.0381 27.041 33.6865V28.4326ZM32.1826 35.0977C31.8148 35.0977 31.4811 35.0358 31.1816 34.9121C30.8854 34.7852 30.6299 34.6077 30.415 34.3799C30.2035 34.152 30.0407 33.8818 29.9268 33.5693C29.8128 33.2568 29.7559 32.915 29.7559 32.5439V32.3389C29.7559 31.9092 29.8193 31.5267 29.9463 31.1914C30.0732 30.8529 30.2458 30.5664 30.4639 30.332C30.682 30.0977 30.9294 29.9202 31.2061 29.7998C31.4827 29.6794 31.7692 29.6191 32.0654 29.6191C32.443 29.6191 32.7686 29.6842 33.042 29.8145C33.3187 29.9447 33.5449 30.127 33.7207 30.3613C33.8965 30.5924 34.0267 30.8659 34.1113 31.1816C34.196 31.4941 34.2383 31.8359 34.2383 32.207V32.6123H30.293V31.875H33.335V31.8066C33.3219 31.5723 33.2731 31.3444 33.1885 31.123C33.1071 30.9017 32.9769 30.7194 32.7979 30.5762C32.6188 30.4329 32.3747 30.3613 32.0654 30.3613C31.8604 30.3613 31.6715 30.4053 31.499 30.4932C31.3265 30.5778 31.1784 30.7048 31.0547 30.874C30.931 31.0433 30.835 31.25 30.7666 31.4941C30.6982 31.7383 30.6641 32.0199 30.6641 32.3389V32.5439C30.6641 32.7946 30.6982 33.0306 30.7666 33.252C30.8382 33.4701 30.9408 33.6621 31.0742 33.8281C31.2109 33.9941 31.3753 34.1243 31.5674 34.2188C31.7627 34.3132 31.984 34.3604 32.2314 34.3604C32.5505 34.3604 32.8206 34.2952 33.042 34.165C33.2633 34.0348 33.457 33.8607 33.623 33.6426L34.1699 34.0771C34.056 34.2497 33.9111 34.4141 33.7354 34.5703C33.5596 34.7266 33.3431 34.8535 33.0859 34.9512C32.832 35.0488 32.5309 35.0977 32.1826 35.0977Z" fill="black"/>
</svg>
